<svg width="7" height="13" viewBox="0 0 7 13" fill="none" xmlns="http://www.w3.org/2000/svg">
<path fill-rule="evenodd" clip-rule="evenodd" d="M6.73276 5.41969C6.90387 5.59085 7 5.82298 7 6.06501C7 6.30704 6.90387 6.53916 6.73276 6.71032L1.56929 11.8738C1.48509 11.961 1.38438 12.0305 1.27302 12.0783C1.16166 12.1262 1.04188 12.1514 0.920688 12.1524C0.799493 12.1535 0.679302 12.1304 0.567127 12.0845C0.454953 12.0386 0.353041 11.9708 0.26734 11.8851C0.181639 11.7994 0.113864 11.6975 0.0679696 11.5853C0.0220754 11.4731 -0.00101869 11.353 3.4463e-05 11.2318C0.00108762 11.1106 0.0262672 10.9908 0.0741039 10.8794C0.121941 10.7681 0.191476 10.6674 0.278654 10.5832L4.7968 6.06501L0.278654 1.54686C0.112388 1.37471 0.0203869 1.14415 0.0224665 0.904825C0.0245462 0.665503 0.12054 0.436573 0.289772 0.26734C0.459005 0.0981076 0.687936 0.00211415 0.927258 3.45046e-05C1.16658 -0.00204514 1.39714 0.0899556 1.56929 0.256222L6.73276 5.41969Z" fill="black"/>
</svg>
